<?xml version="1.0" encoding="UTF-8" ?>
<!DOCTYPE svg PUBLIC "-//W3C//DTD SVG 1.1//EN" "http://www.w3.org/Graphics/SVG/1.1/DTD/svg11.dtd">
<svg width="1000pt" height="1000pt" viewBox="0 0 1000 1000" version="1.1" xmlns="http://www.w3.org/2000/svg">
<g id="#e3e7e8ff">
</g>
<g id="#6d6a8dff">
<path fill="#6d6a8d" opacity="1.00" d=" M 435.39 97.63 C 457.59 89.11 481.18 83.92 505.00 83.55 C 536.49 81.92 568.21 88.92 596.60 102.49 C 602.26 105.38 608.22 107.93 613.12 112.06 C 605.74 108.95 598.93 104.68 591.58 101.49 C 572.90 93.17 552.93 87.64 532.57 85.53 C 525.07 84.52 517.48 84.30 509.93 84.75 C 509.67 96.83 509.89 108.92 509.84 121.00 C 509.94 133.47 509.47 145.96 510.28 158.41 C 499.06 158.71 487.85 160.25 477.02 163.19 C 455.98 169.65 436.07 180.79 421.01 197.00 C 414.31 203.11 409.22 210.67 404.33 218.24 C 398.01 229.05 392.41 240.43 389.61 252.71 C 383.65 272.52 386.00 293.41 385.53 313.77 C 377.25 317.16 368.25 314.64 359.68 315.70 C 356.02 319.42 353.40 324.01 350.13 328.07 C 346.17 333.03 343.79 339.22 338.96 343.47 C 333.05 342.11 327.74 338.95 321.97 337.13 C 318.18 335.53 313.63 335.01 310.67 331.91 C 310.17 318.30 310.74 304.63 310.53 291.00 C 310.15 279.04 311.53 267.14 312.75 255.26 C 314.76 244.57 316.53 233.75 320.21 223.47 C 326.31 204.87 334.07 186.55 345.72 170.71 C 350.72 163.45 356.12 156.47 361.75 149.70 C 368.15 142.11 375.80 135.76 383.09 129.08 C 399.06 116.41 416.47 105.37 435.39 97.63 Z" />
<path fill="#6d6a8d" opacity="1.00" d=" M 435.17 301.67 C 437.82 301.54 439.69 303.86 441.19 305.74 C 445.19 311.13 448.57 316.97 452.76 322.24 C 454.61 324.86 457.44 327.76 456.37 331.26 C 455.14 334.34 451.66 335.45 448.94 336.83 C 436.99 342.08 425.20 347.67 413.62 353.68 C 410.74 355.14 407.90 356.72 404.86 357.80 C 400.50 360.18 395.53 355.31 395.47 351.05 C 397.47 345.95 401.43 341.94 404.70 337.63 C 413.82 327.01 422.54 316.07 430.96 304.89 C 432.10 303.57 433.31 301.92 435.17 301.67 Z" />
<path fill="#6d6a8d" opacity="1.00" d=" M 258.65 318.74 C 260.47 318.03 262.10 319.54 263.42 320.60 C 267.20 324.17 270.11 328.53 273.47 332.49 C 280.17 340.50 286.60 348.74 293.05 356.96 C 294.00 358.46 295.45 359.97 295.44 361.85 C 294.70 365.23 291.55 369.22 287.71 367.32 C 276.60 362.56 266.10 356.47 255.50 350.68 C 251.19 348.28 246.19 346.89 242.55 343.45 C 241.48 338.81 245.31 335.16 247.83 331.77 C 251.57 327.55 254.47 322.55 258.65 318.74 Z" />
<path fill="#6d6a8d" opacity="1.00" d=" M 360.60 380.72 C 362.63 378.03 364.93 374.08 368.95 375.49 C 372.08 375.98 371.61 379.63 371.75 381.97 C 371.66 397.81 371.86 413.65 371.66 429.50 C 376.43 431.30 381.50 432.47 385.79 435.37 C 381.28 434.01 376.71 432.80 372.12 431.74 C 371.41 444.48 371.99 457.24 371.59 469.99 C 371.65 473.16 371.21 476.50 372.32 479.54 C 374.73 483.12 378.58 485.41 381.20 488.83 C 386.31 495.36 388.88 503.70 388.87 511.96 C 389.02 528.97 388.82 545.99 389.13 562.99 C 389.11 572.19 389.61 581.44 388.42 590.58 C 387.80 595.66 385.43 600.35 382.16 604.24 C 385.64 597.35 388.14 589.83 388.05 582.03 C 388.21 563.69 388.11 545.34 388.10 527.00 C 387.35 517.35 389.00 507.21 384.93 498.10 C 382.63 491.54 377.96 486.18 372.46 482.07 C 371.45 487.68 371.73 493.40 371.60 499.07 C 371.52 508.34 365.34 517.42 356.39 520.24 C 344.92 524.57 330.44 518.46 326.59 506.56 C 324.35 498.44 326.01 489.87 324.79 481.59 C 324.46 465.10 325.07 448.60 324.90 432.12 C 323.25 432.13 321.61 432.13 319.98 432.21 C 321.76 431.21 323.58 430.26 325.40 429.32 C 325.51 420.88 325.18 412.44 325.41 404.00 C 330.56 404.59 335.47 406.98 340.71 406.74 C 343.32 404.60 344.85 401.48 346.76 398.76 C 350.81 392.32 356.32 386.99 360.60 380.72 Z" />
<path fill="#6d6a8d" opacity="1.00" d=" M 399.54 388.00 C 399.07 384.84 401.10 381.70 404.03 380.56 C 409.08 380.23 414.01 381.76 418.99 382.32 C 430.36 384.37 442.02 385.00 453.20 387.91 C 457.38 390.99 454.06 396.01 452.72 399.70 C 449.77 405.78 449.04 412.99 444.29 418.09 C 438.79 415.75 433.84 412.38 428.84 409.14 C 420.63 404.05 412.59 398.69 404.35 393.65 C 402.37 392.22 399.64 390.75 399.54 388.00 Z" />
<path fill="#6d6a8d" opacity="1.00" d=" M 268.41 391.38 C 274.58 390.71 280.81 389.89 287.03 390.50 C 291.81 391.18 293.21 398.66 289.33 401.36 C 284.66 404.58 279.29 406.62 274.53 409.71 C 265.10 415.68 255.22 420.85 245.47 426.25 C 242.45 427.84 239.43 429.62 236.04 430.31 C 232.94 429.59 232.24 426.05 231.29 423.49 C 229.06 415.94 227.18 408.28 224.89 400.74 C 223.83 398.27 225.14 395.73 226.94 394.03 C 240.70 392.50 254.58 392.19 268.41 391.38 Z" />
<path fill="#6d6a8d" opacity="1.00" d=" M 301.70 439.79 C 307.24 436.73 312.80 433.22 319.18 432.25 C 310.87 436.42 302.20 440.08 294.82 445.84 C 274.38 461.05 261.37 486.40 262.42 512.01 C 262.47 536.00 262.44 559.99 262.45 583.98 C 262.04 607.78 273.14 631.42 291.40 646.61 C 299.65 653.90 309.44 659.13 319.35 663.78 C 312.00 662.59 305.78 658.24 299.62 654.37 C 288.07 646.47 277.71 636.30 271.29 623.74 C 265.91 613.83 262.19 602.87 261.54 591.57 C 259.87 575.10 260.86 558.52 260.59 542.00 C 260.95 523.73 258.93 504.99 264.41 487.25 C 270.44 467.55 283.85 450.17 301.70 439.79 Z" />
<path fill="#6d6a8d" opacity="1.00" d=" M 336.30 574.34 C 341.16 571.27 347.18 571.13 352.73 571.63 C 362.24 572.59 369.84 580.97 371.38 590.15 C 372.46 597.79 370.47 605.73 373.06 613.18 C 371.58 615.86 371.21 618.94 371.30 621.96 C 371.54 635.93 371.46 649.91 371.41 663.89 C 372.95 663.92 374.50 663.96 376.05 663.93 C 374.55 665.26 372.73 666.34 371.71 668.12 C 371.48 670.39 372.94 672.34 373.87 674.30 C 373.26 674.29 372.05 674.28 371.45 674.28 C 371.49 689.98 371.35 705.69 371.54 721.40 C 373.29 722.37 374.98 723.44 376.74 724.41 C 375.24 724.24 373.73 724.15 372.23 724.04 C 372.17 731.38 372.77 738.75 372.07 746.07 C 371.23 756.02 363.10 765.15 353.08 766.41 C 346.96 767.16 340.38 766.48 335.17 762.94 C 330.97 760.07 327.17 756.02 326.04 750.92 C 325.24 747.14 324.80 743.29 324.54 739.45 C 324.22 720.05 324.71 700.65 324.47 681.25 C 316.26 684.16 309.22 689.32 302.07 694.16 C 305.82 689.41 311.14 686.31 316.42 683.58 C 319.09 682.14 322.08 681.11 324.29 678.95 C 324.75 674.94 324.49 670.89 324.54 666.87 C 323.34 665.95 322.15 665.02 320.96 664.10 C 322.34 664.09 323.73 664.07 325.12 664.05 C 325.68 651.70 325.14 639.35 325.42 627.01 C 325.46 622.23 325.85 617.10 323.30 612.83 C 323.80 612.67 324.80 612.35 325.30 612.19 C 325.34 604.77 324.89 597.32 325.55 589.91 C 326.14 583.28 330.86 577.79 336.30 574.34 Z" />
<path fill="#6d6a8d" opacity="1.00" d=" M 522.21 653.05 C 527.33 654.37 531.96 656.98 536.67 659.29 C 566.18 673.05 595.00 688.21 624.20 702.61 C 633.55 707.59 643.47 711.39 652.82 716.37 C 660.93 720.64 669.16 724.68 677.36 728.78 C 683.58 731.82 689.46 735.55 695.88 738.20 C 700.73 740.23 705.46 742.56 709.92 745.36 C 705.85 749.13 700.29 750.24 695.40 752.51 C 686.57 756.41 677.77 760.40 668.80 763.96 C 663.83 766.32 658.49 767.95 653.90 771.03 C 656.14 775.57 659.90 779.07 663.03 782.99 C 669.75 790.68 676.20 798.61 682.37 806.75 C 690.05 816.33 698.08 825.62 705.86 835.11 C 707.05 836.94 709.59 839.28 707.65 841.49 C 703.39 848.10 697.30 853.24 692.10 859.08 C 687.72 864.04 682.89 868.57 678.08 873.10 C 676.71 874.18 675.37 875.84 673.43 875.61 C 672.52 874.44 671.78 873.16 671.04 871.90 C 672.29 872.69 673.58 873.45 674.87 874.21 C 680.78 869.16 686.38 863.76 691.48 857.89 C 683.89 847.19 675.42 837.14 666.71 827.35 C 654.26 811.19 641.49 795.27 628.20 779.79 C 623.12 774.20 618.06 768.57 613.62 762.45 C 607.48 754.01 600.10 746.59 593.56 738.47 C 588.80 732.84 584.53 726.81 579.93 721.05 C 566.63 705.03 553.39 688.96 539.98 673.03 C 535.42 667.33 530.38 662.05 525.07 657.06 C 525.07 658.57 525.09 660.08 525.11 661.60 C 525.08 662.23 525.03 663.49 525.00 664.12 C 523.81 660.50 522.86 656.80 522.21 653.05 Z" />
<path fill="#6d6a8d" opacity="1.00" d=" M 427.87 786.08 C 432.53 791.11 436.86 796.77 438.57 803.55 C 439.90 808.08 439.53 812.91 440.80 817.45 C 443.65 821.00 448.14 822.67 451.70 825.41 C 460.97 832.31 470.68 838.57 480.13 845.22 C 480.64 844.47 481.15 843.72 481.67 842.98 C 482.28 844.68 482.46 846.80 484.11 847.90 C 487.95 850.87 492.18 853.32 496.28 855.91 C 497.97 850.56 498.84 844.76 502.18 840.10 C 503.94 837.55 506.43 835.65 509.05 834.06 C 505.49 837.57 502.20 841.50 500.25 846.16 C 498.70 849.84 498.45 853.89 498.35 857.85 C 504.48 862.16 511.74 865.72 515.58 872.47 C 520.67 881.60 519.38 894.32 511.49 901.48 C 506.89 906.06 500.38 907.61 494.18 908.51 C 494.05 909.67 493.92 910.84 493.80 912.02 C 492.83 909.99 492.13 907.35 489.62 906.80 C 477.21 902.53 467.51 893.30 456.72 886.23 C 455.28 885.43 453.74 884.84 452.22 884.26 C 449.09 881.19 445.69 878.36 441.95 876.07 C 435.19 871.91 428.68 867.36 422.29 862.67 C 417.36 859.11 412.41 855.31 406.52 853.53 C 404.53 850.79 401.96 848.58 399.09 846.82 C 393.20 843.11 387.99 837.84 385.76 831.13 C 382.09 821.21 386.42 809.07 395.42 803.57 C 401.17 799.85 408.58 799.42 415.05 801.25 C 423.73 804.22 430.44 810.77 437.80 815.96 C 438.31 812.44 438.72 808.81 437.90 805.31 C 436.26 798.14 431.51 792.30 427.87 786.08 Z" />
</g>
<g id="#20385dff">
<path fill="#20385d" opacity="1.00" d=" M 509.93 84.75 C 517.48 84.30 525.07 84.52 532.57 85.53 C 552.93 87.64 572.90 93.17 591.58 101.49 C 598.93 104.68 605.74 108.95 613.12 112.06 C 619.62 115.55 625.48 120.11 631.33 124.57 C 644.88 134.53 656.56 146.86 666.95 160.03 C 672.60 166.94 677.08 174.68 681.68 182.30 C 696.22 206.52 705.00 234.01 708.35 262.00 C 709.24 284.99 708.64 308.00 708.80 331.00 C 708.81 359.51 708.80 388.01 708.79 416.51 C 684.41 416.44 660.03 416.70 635.65 416.37 C 635.51 372.23 635.68 328.09 635.56 283.96 C 635.46 267.61 631.95 251.36 625.59 236.32 C 622.27 228.41 618.55 220.54 613.07 213.86 C 605.61 202.94 596.39 193.32 586.36 184.74 C 564.83 167.84 537.54 158.82 510.28 158.41 C 509.47 145.96 509.94 133.47 509.84 121.00 C 509.89 108.92 509.67 96.83 509.93 84.75 Z" />
<path fill="#20385d" opacity="1.00" d=" M 319.18 432.25 L 319.98 432.21 C 321.61 432.13 323.25 432.13 324.90 432.12 C 325.07 448.60 324.46 465.10 324.79 481.59 C 315.19 487.54 308.86 498.66 309.29 510.01 C 309.15 533.01 309.31 556.00 309.26 579.00 C 309.32 584.94 308.89 591.14 311.35 596.72 C 313.75 603.09 318.19 608.42 323.30 612.83 C 325.85 617.10 325.46 622.23 325.42 627.01 C 325.14 639.35 325.68 651.70 325.12 664.05 C 323.73 664.07 322.34 664.09 320.96 664.10 C 320.56 664.02 319.75 663.86 319.35 663.78 C 309.44 659.13 299.65 653.90 291.40 646.61 C 273.14 631.42 262.04 607.78 262.45 583.98 C 262.44 559.99 262.47 536.00 262.42 512.01 C 261.37 486.40 274.38 461.05 294.82 445.84 C 302.20 440.08 310.87 436.42 319.18 432.25 Z" />
<path fill="#20385d" opacity="1.00" d=" M 372.12 431.74 C 376.71 432.80 381.28 434.01 385.79 435.37 C 400.75 442.16 414.61 452.74 422.85 467.20 C 430.33 479.12 434.35 492.99 435.52 506.95 C 435.68 532.30 435.56 557.65 435.60 583.00 C 435.98 601.25 429.78 619.36 419.06 634.05 C 409.51 646.44 396.61 656.15 382.22 662.23 C 380.25 663.06 378.20 663.81 376.05 663.93 C 374.50 663.96 372.95 663.92 371.41 663.89 C 371.46 649.91 371.54 635.93 371.30 621.96 C 371.21 618.94 371.58 615.86 373.06 613.18 C 376.39 610.53 379.64 607.71 382.16 604.24 C 385.43 600.35 387.80 595.66 388.42 590.58 C 389.61 581.44 389.11 572.19 389.13 562.99 C 388.82 545.99 389.02 528.97 388.87 511.96 C 388.88 503.70 386.31 495.36 381.20 488.83 C 378.58 485.41 374.73 483.12 372.32 479.54 C 371.21 476.50 371.65 473.16 371.59 469.99 C 371.99 457.24 371.41 444.48 372.12 431.74 Z" />
<path fill="#20385d" opacity="1.00" d=" M 585.32 460.00 C 584.63 448.45 595.67 438.21 606.97 438.43 C 647.98 438.44 688.99 438.45 730.00 438.44 C 733.35 438.46 736.72 438.28 740.07 438.61 C 750.44 440.38 759.32 450.26 758.61 461.02 C 758.64 540.01 758.85 619.00 758.60 698.00 C 758.56 706.82 757.71 715.63 756.28 724.33 C 755.45 730.10 755.20 736.01 753.34 741.59 C 752.98 741.82 752.26 742.28 751.91 742.51 C 748.47 741.28 745.36 739.37 742.14 737.70 C 735.18 733.98 727.98 730.71 721.14 726.78 C 721.54 726.91 722.34 727.17 722.73 727.30 C 721.92 726.09 721.11 724.91 720.29 723.73 C 722.37 724.06 724.47 724.30 726.58 724.45 C 725.94 720.26 725.49 715.99 726.17 711.77 C 726.91 706.97 726.66 702.06 725.69 697.31 C 724.28 689.70 720.29 682.82 719.33 675.10 C 717.51 661.64 717.36 648.00 715.55 634.55 C 713.02 622.18 706.63 611.11 701.65 599.64 C 699.07 593.47 697.35 587.00 695.56 580.58 C 693.00 571.57 693.15 562.06 694.01 552.81 C 695.00 542.94 699.08 533.81 703.00 524.82 C 706.95 515.86 707.40 505.06 702.85 496.24 C 699.96 490.58 693.56 488.17 687.71 486.92 C 679.40 485.05 670.88 487.69 663.38 491.22 C 654.79 495.28 650.65 504.43 646.04 512.18 C 642.42 518.64 641.76 526.19 638.78 532.91 C 635.03 541.52 630.00 549.48 625.51 557.71 C 622.58 563.06 618.68 568.11 613.19 571.01 C 609.39 572.94 605.42 575.18 601.07 575.34 C 597.12 574.23 593.21 572.85 589.11 572.41 C 588.53 577.35 588.02 582.30 587.30 587.22 C 587.11 580.66 586.82 574.09 585.55 567.64 C 585.00 553.78 585.44 539.87 585.28 526.00 C 585.26 504.00 585.18 482.00 585.32 460.00 Z" />
<path fill="#20385d" opacity="1.00" d=" M 525.07 657.06 C 530.38 662.05 535.42 667.33 539.98 673.03 C 553.39 688.96 566.63 705.03 579.93 721.05 C 584.53 726.81 588.80 732.84 593.56 738.47 C 600.10 746.59 607.48 754.01 613.62 762.45 C 618.06 768.57 623.12 774.20 628.20 779.79 C 641.49 795.27 654.26 811.19 666.71 827.35 C 675.42 837.14 683.89 847.19 691.48 857.89 C 686.38 863.76 680.78 869.16 674.87 874.21 C 673.58 873.45 672.29 872.69 671.04 871.90 C 664.98 864.65 659.05 857.28 652.92 850.08 C 646.74 843.22 641.49 835.58 635.44 828.60 C 628.26 820.46 622.26 811.35 614.84 803.40 C 609.41 809.58 605.03 816.55 600.18 823.16 C 593.87 831.88 587.55 840.60 581.55 849.54 C 580.31 851.44 578.60 852.95 576.84 854.36 C 571.84 834.33 566.13 814.46 560.59 794.57 C 549.88 755.46 539.96 716.14 528.92 677.12 C 527.65 671.95 525.77 666.91 525.11 661.60 C 525.09 660.08 525.07 658.57 525.07 657.06 Z" />
<path fill="#20385d" opacity="1.00" d=" M 371.45 674.28 C 372.05 674.28 373.26 674.29 373.87 674.30 C 388.11 675.15 401.22 682.17 412.58 690.42 C 422.87 697.84 429.87 708.59 437.30 718.66 C 447.11 731.57 456.45 744.82 466.13 757.82 C 472.08 766.15 478.53 774.38 481.89 784.18 C 483.46 788.93 485.40 793.73 485.63 798.78 C 485.24 809.25 485.36 819.73 485.57 830.21 C 485.00 834.59 484.21 839.26 481.67 842.98 C 481.15 843.72 480.64 844.47 480.13 845.22 C 470.68 838.57 460.97 832.31 451.70 825.41 C 448.14 822.67 443.65 821.00 440.80 817.45 C 439.53 812.91 439.90 808.08 438.57 803.55 C 436.86 796.77 432.53 791.11 427.87 786.08 C 415.75 769.31 402.95 753.06 390.74 736.36 C 387.12 731.32 382.26 727.23 376.74 724.41 C 374.98 723.44 373.29 722.37 371.54 721.40 C 371.35 705.69 371.49 689.98 371.45 674.28 Z" />
<path fill="#20385d" opacity="1.00" d=" M 302.07 694.16 C 309.22 689.32 316.26 684.16 324.47 681.25 C 324.71 700.65 324.22 720.05 324.54 739.45 C 322.27 743.31 319.87 747.34 319.52 751.92 C 319.13 756.95 319.05 762.04 319.60 767.07 C 320.86 774.37 325.63 780.36 329.63 786.39 C 340.97 802.00 352.87 817.22 364.04 832.96 C 369.17 840.29 374.88 847.91 383.37 851.53 C 390.58 855.02 398.81 853.71 406.52 853.53 C 412.41 855.31 417.36 859.11 422.29 862.67 C 428.68 867.36 435.19 871.91 441.95 876.07 C 445.69 878.36 449.09 881.19 452.22 884.26 C 436.33 896.43 416.10 903.37 396.00 902.53 C 383.83 902.63 371.92 899.08 360.98 893.97 C 353.81 890.13 346.58 886.04 340.98 880.04 C 331.87 871.56 325.20 860.98 317.93 850.99 C 307.50 836.17 296.07 822.07 285.95 807.04 C 276.24 793.10 270.57 776.08 271.44 759.01 C 270.59 734.09 282.90 709.75 302.07 694.16 Z" />
<path fill="#20385d" opacity="1.00" d=" M 711.93 769.62 C 723.87 763.27 736.76 758.82 749.18 753.46 C 749.50 753.83 750.15 754.58 750.47 754.95 C 745.54 771.33 739.86 787.59 731.76 802.71 C 728.48 808.66 725.83 815.12 721.10 820.13 C 715.06 812.46 708.38 805.28 702.67 797.38 C 702.00 795.68 701.41 793.96 700.81 792.26 C 703.98 795.08 707.03 798.14 710.80 800.17 C 712.35 798.22 713.24 795.86 714.33 793.65 C 716.34 789.17 719.41 785.09 720.24 780.16 C 720.92 776.32 721.98 772.55 723.69 769.04 C 719.82 769.83 715.85 770.05 711.93 769.62 Z" />
<path fill="#20385d" opacity="1.00" d=" M 504.32 851.97 C 508.49 854.63 512.44 857.62 516.33 860.67 C 523.46 866.50 532.64 869.03 541.53 870.69 C 546.54 870.88 551.55 871.89 555.83 874.64 C 555.13 871.13 554.51 867.61 553.89 864.10 C 555.01 865.00 556.13 865.91 557.26 866.83 C 560.94 879.37 563.47 892.36 568.75 904.37 C 571.75 901.13 574.56 897.72 577.11 894.11 C 583.66 884.75 590.27 875.42 596.99 866.17 C 597.44 870.98 596.01 875.72 593.07 879.53 C 601.60 876.23 610.99 878.53 619.53 875.35 C 625.88 873.53 632.72 870.35 639.29 873.11 C 636.23 869.15 632.34 865.20 632.33 859.87 C 636.83 862.95 639.77 867.64 643.26 871.73 C 647.74 877.53 652.79 882.90 656.81 889.06 C 648.36 896.27 638.28 901.21 628.66 906.66 C 605.53 919.40 580.08 927.65 554.07 931.95 C 537.54 934.92 520.65 934.79 503.92 934.39 C 499.80 934.47 497.17 930.68 496.26 927.09 C 494.95 922.18 493.69 917.12 493.80 912.02 C 493.92 910.84 494.05 909.67 494.18 908.51 C 500.38 907.61 506.89 906.06 511.49 901.48 C 519.38 894.32 520.67 881.60 515.58 872.47 C 511.74 865.72 504.48 862.16 498.35 857.85 C 500.34 855.89 502.33 853.93 504.32 851.97 Z" />
</g>
<g id="#909aabff">
<path fill="#909aab" opacity="1.00" d=" M 613.07 213.86 C 618.55 220.54 622.27 228.41 625.59 236.32 C 631.95 251.36 635.46 267.61 635.56 283.96 C 635.68 328.09 635.51 372.23 635.65 416.37 C 660.03 416.70 684.41 416.44 708.79 416.51 L 710.22 416.55 C 708.28 417.51 706.27 418.44 704.06 418.27 C 683.03 418.19 661.99 418.16 640.96 418.28 C 638.41 418.28 635.93 417.63 633.48 417.02 C 633.93 392.68 633.56 368.34 633.68 344.00 C 633.65 321.33 633.75 298.67 633.64 276.00 C 632.49 261.73 629.47 247.50 623.48 234.44 C 620.74 227.21 616.00 220.99 613.07 213.86 Z" />
<path fill="#909aab" opacity="1.00" d=" M 537.82 791.92 C 540.66 797.77 541.72 804.23 543.45 810.45 C 548.23 827.76 552.54 845.20 557.41 862.49 C 561.13 875.73 564.41 889.11 568.78 902.17 C 575.35 895.74 579.81 887.58 585.27 880.25 C 594.09 867.45 603.54 855.10 612.19 842.18 C 613.15 840.83 614.13 839.47 615.36 838.36 C 616.83 838.08 617.73 839.41 618.65 840.32 C 622.12 844.32 625.55 848.44 627.94 853.20 C 623.75 848.80 620.08 843.96 616.04 839.43 C 609.39 848.12 603.22 857.17 596.99 866.17 C 590.27 875.42 583.66 884.75 577.11 894.11 C 574.56 897.72 571.75 901.13 568.75 904.37 C 563.47 892.36 560.94 879.37 557.26 866.83 C 551.83 846.75 546.55 826.63 540.89 806.62 C 539.65 801.76 538.62 796.86 537.82 791.92 Z" />
</g>
<g id="#255e7cff">
<path fill="#255e7c" opacity="1.00" d=" M 663.38 491.22 C 670.88 487.69 679.40 485.05 687.71 486.92 C 693.56 488.17 699.96 490.58 702.85 496.24 C 707.40 505.06 706.95 515.86 703.00 524.82 C 699.08 533.81 695.00 542.94 694.01 552.81 C 693.15 562.06 693.00 571.57 695.56 580.58 C 697.35 587.00 699.07 593.47 701.65 599.64 C 706.63 611.11 713.02 622.18 715.55 634.55 C 717.36 648.00 717.51 661.64 719.33 675.10 C 720.29 682.82 724.28 689.70 725.69 697.31 C 726.66 702.06 726.91 706.97 726.17 711.77 C 725.49 715.99 725.94 720.26 726.58 724.45 C 724.47 724.30 722.37 724.06 720.29 723.73 C 721.11 724.91 721.92 726.09 722.73 727.30 C 722.34 727.17 721.54 726.91 721.14 726.78 C 708.42 721.84 696.81 714.39 684.21 709.13 L 684.65 708.91 C 686.30 708.08 687.94 707.22 689.61 706.42 C 689.22 701.21 688.42 696.02 686.70 691.08 C 684.16 684.00 684.42 676.33 682.17 669.17 C 686.23 663.97 689.61 658.30 692.21 652.24 C 693.42 649.17 695.76 646.83 698.18 644.69 C 698.64 639.97 699.39 635.10 698.34 630.42 C 696.70 626.96 694.38 623.84 693.32 620.13 C 691.66 614.46 688.60 609.29 687.33 603.50 C 686.14 598.42 685.18 593.28 683.82 588.24 C 682.37 582.56 680.09 576.98 680.19 571.02 C 680.34 562.99 679.09 554.96 680.08 546.96 C 681.00 539.33 679.97 531.65 680.55 524.02 C 680.77 520.76 682.42 517.16 685.78 516.17 C 689.72 515.01 693.89 515.07 697.96 514.72 C 698.46 508.53 698.36 502.31 697.71 496.15 C 687.95 495.16 676.70 494.75 668.96 501.86 C 667.44 503.06 666.02 504.39 664.74 505.83 C 662.29 508.48 659.94 511.35 658.74 514.81 C 656.87 520.07 656.99 525.74 656.77 531.25 C 656.15 531.08 655.54 530.92 654.94 530.76 C 652.63 537.03 650.55 543.44 647.28 549.29 C 645.30 552.93 642.96 556.48 642.01 560.57 C 641.35 563.44 641.12 566.38 640.81 569.30 C 639.82 568.97 638.83 568.65 637.85 568.34 C 635.88 577.72 636.51 587.33 636.24 596.84 C 636.05 602.42 634.76 608.55 630.29 612.32 C 628.93 613.71 626.91 613.58 625.14 613.68 C 618.99 613.63 612.73 613.26 606.91 611.10 C 601.34 609.04 595.37 608.70 589.51 608.37 C 588.91 611.21 588.34 614.05 587.78 616.90 C 586.97 615.92 586.16 614.96 585.35 614.01 C 585.61 598.56 584.86 583.08 585.55 567.64 C 586.82 574.09 587.11 580.66 587.30 587.22 C 588.02 582.30 588.53 577.35 589.11 572.41 C 593.21 572.85 597.12 574.23 601.07 575.34 C 605.42 575.18 609.39 572.94 613.19 571.01 C 618.68 568.11 622.58 563.06 625.51 557.71 C 630.00 549.48 635.03 541.52 638.78 532.91 C 641.76 526.19 642.42 518.64 646.04 512.18 C 650.65 504.43 654.79 495.28 663.38 491.22 Z" />
<path fill="#255e7c" opacity="1.00" d=" M 711.93 769.62 C 715.85 770.05 719.82 769.83 723.69 769.04 C 721.98 772.55 720.92 776.32 720.24 780.16 C 719.41 785.09 716.34 789.17 714.33 793.65 C 713.24 795.86 712.35 798.22 710.80 800.17 C 707.03 798.14 703.98 795.08 700.81 792.26 C 701.41 793.96 702.00 795.68 702.67 797.38 C 698.38 793.94 695.41 789.26 691.82 785.17 C 690.14 783.31 688.68 781.24 687.90 778.85 C 694.33 776.41 700.63 773.65 706.95 770.91 C 708.53 770.28 710.16 769.46 711.93 769.62 Z" />
<path fill="#255e7c" opacity="1.00" d=" M 485.63 798.78 C 488.42 809.05 487.96 819.92 485.57 830.21 C 485.36 819.73 485.24 809.25 485.63 798.78 Z" />
<path fill="#255e7c" opacity="1.00" d=" M 524.43 802.25 L 524.97 802.53 C 524.98 804.18 525.51 805.76 525.63 807.42 C 525.95 806.03 525.15 804.33 526.98 803.73 C 526.95 803.46 526.87 802.90 526.83 802.63 C 528.32 803.71 528.98 805.53 530.49 806.60 C 532.59 807.83 534.99 808.44 537.33 809.08 C 538.49 808.21 539.67 807.39 540.89 806.62 C 546.55 826.63 551.83 846.75 557.26 866.83 C 556.13 865.91 555.01 865.00 553.89 864.10 C 554.51 867.61 555.13 871.13 555.83 874.64 C 551.55 871.89 546.54 870.88 541.53 870.69 C 532.64 869.03 523.46 866.50 516.33 860.67 C 512.44 857.62 508.49 854.63 504.32 851.97 C 502.33 853.93 500.34 855.89 498.35 857.85 C 498.45 853.89 498.70 849.84 500.25 846.16 C 502.20 841.50 505.49 837.57 509.05 834.06 C 513.24 830.40 519.88 828.67 521.51 822.74 C 523.23 816.05 524.48 809.17 524.43 802.25 Z" />
<path fill="#255e7c" opacity="1.00" d=" M 596.99 866.17 C 603.22 857.17 609.39 848.12 616.04 839.43 C 620.08 843.96 623.75 848.80 627.94 853.20 C 629.52 855.28 632.05 857.09 632.33 859.87 C 632.34 865.20 636.23 869.15 639.29 873.11 C 632.72 870.35 625.88 873.53 619.53 875.35 C 610.99 878.53 601.60 876.23 593.07 879.53 C 596.01 875.72 597.44 870.98 596.99 866.17 Z" />
</g>
<g id="#2e95acff">
<path fill="#2e95ac" opacity="1.00" d=" M 668.96 501.86 C 676.70 494.75 687.95 495.16 697.71 496.15 C 698.36 502.31 698.46 508.53 697.96 514.72 C 693.89 515.07 689.72 515.01 685.78 516.17 C 682.42 517.16 680.77 520.76 680.55 524.02 C 679.97 531.65 681.00 539.33 680.08 546.96 C 679.09 554.96 680.34 562.99 680.19 571.02 C 680.09 576.98 682.37 582.56 683.82 588.24 C 685.18 593.28 686.14 598.42 687.33 603.50 C 688.60 609.29 691.66 614.46 693.32 620.13 C 694.38 623.84 696.70 626.96 698.34 630.42 C 699.39 635.10 698.64 639.97 698.18 644.69 C 695.76 646.83 693.42 649.17 692.21 652.24 C 689.61 658.30 686.23 663.97 682.17 669.17 C 684.42 676.33 684.16 684.00 686.70 691.08 C 688.42 696.02 689.22 701.21 689.61 706.42 C 687.94 707.22 686.30 708.08 684.65 708.91 C 673.16 703.89 662.17 697.80 651.10 691.94 C 645.00 687.98 638.29 685.08 632.22 681.09 C 632.18 679.23 633.01 677.09 631.62 675.53 C 626.19 668.14 618.27 662.90 610.04 659.07 C 603.66 656.14 596.59 655.54 589.75 654.42 C 589.01 656.19 588.26 657.95 587.51 659.72 C 586.17 654.93 585.41 649.98 585.51 645.00 C 585.59 635.94 585.38 626.88 585.29 617.82 C 585.30 616.54 585.32 615.27 585.35 614.01 C 586.16 614.96 586.97 615.92 587.78 616.90 C 588.34 614.05 588.91 611.21 589.51 608.37 C 595.37 608.70 601.34 609.04 606.91 611.10 C 612.73 613.26 618.99 613.63 625.14 613.68 C 626.91 613.58 628.93 613.71 630.29 612.32 C 634.76 608.55 636.05 602.42 636.24 596.84 C 636.51 587.33 635.88 577.72 637.85 568.34 C 638.83 568.65 639.82 568.97 640.81 569.30 C 641.12 566.38 641.35 563.44 642.01 560.57 C 642.96 556.48 645.30 552.93 647.28 549.29 C 650.55 543.44 652.63 537.03 654.94 530.76 C 655.54 530.92 656.15 531.08 656.77 531.25 C 656.99 525.74 656.87 520.07 658.74 514.81 C 659.94 511.35 662.29 508.48 664.74 505.83 C 662.31 510.26 660.36 515.03 659.75 520.08 C 658.57 530.91 660.60 541.94 658.33 552.67 C 657.68 556.19 655.49 559.43 652.15 560.90 C 649.57 562.48 646.13 563.01 644.16 565.39 C 642.81 569.67 643.63 574.29 643.80 578.71 C 649.03 579.89 655.89 581.07 657.68 587.04 C 661.04 600.79 656.32 615.31 660.98 628.89 C 663.13 635.27 668.60 640.05 674.81 642.35 C 681.59 645.09 689.08 644.64 696.24 644.28 C 696.52 639.01 696.46 633.72 695.89 628.47 C 689.98 627.76 681.28 628.03 679.32 620.88 C 676.83 608.70 680.37 595.93 677.10 583.83 C 675.49 578.07 670.36 574.55 665.88 571.11 C 670.71 567.26 676.44 563.24 677.63 556.73 C 679.53 546.10 677.71 535.23 678.83 524.54 C 679.29 521.20 680.43 517.47 683.53 515.67 C 687.45 513.53 692.05 513.64 696.37 513.11 C 696.40 507.97 696.32 502.84 696.13 497.71 C 686.90 495.72 677.35 497.88 668.96 501.86 Z" />
<path fill="#2e95ac" opacity="1.00" d=" M 527.75 774.33 C 529.57 774.58 531.45 774.49 533.23 773.99 C 534.55 780.02 536.70 785.84 537.82 791.92 C 538.62 796.86 539.65 801.76 540.89 806.62 C 539.67 807.39 538.49 808.21 537.33 809.08 C 534.99 808.44 532.59 807.83 530.49 806.60 C 528.98 805.53 528.32 803.71 526.83 802.63 C 526.87 802.90 526.95 803.46 526.98 803.73 C 525.15 804.33 525.95 806.03 525.63 807.42 C 525.51 805.76 524.98 804.18 524.97 802.53 C 526.37 793.20 526.68 783.72 527.75 774.33 Z" />
</g>
<g id="#68fbfcff">
<path fill="#68fbfc" opacity="1.00" d=" M 668.96 501.86 C 677.35 497.88 686.90 495.72 696.13 497.71 C 696.32 502.84 696.40 507.97 696.37 513.11 C 692.05 513.64 687.45 513.53 683.53 515.67 C 680.43 517.47 679.29 521.20 678.83 524.54 C 677.71 535.23 679.53 546.10 677.63 556.73 C 676.44 563.24 670.71 567.26 665.88 571.11 C 670.36 574.55 675.49 578.07 677.10 583.83 C 680.37 595.93 676.83 608.70 679.32 620.88 C 681.28 628.03 689.98 627.76 695.89 628.47 C 696.46 633.72 696.52 639.01 696.24 644.28 C 689.08 644.64 681.59 645.09 674.81 642.35 C 668.60 640.05 663.13 635.27 660.98 628.89 C 656.32 615.31 661.04 600.79 657.68 587.04 C 655.89 581.07 649.03 579.89 643.80 578.71 C 643.63 574.29 642.81 569.67 644.16 565.39 C 646.13 563.01 649.57 562.48 652.15 560.90 C 655.49 559.43 657.68 556.19 658.33 552.67 C 660.60 541.94 658.57 530.91 659.75 520.08 C 660.36 515.03 662.31 510.26 664.74 505.83 C 666.02 504.39 667.44 503.06 668.96 501.86 Z" />
<path fill="#68fbfc" opacity="1.00" d=" M 584.58 642.00 C 584.87 633.94 583.95 625.81 585.29 617.82 C 585.38 626.88 585.59 635.94 585.51 645.00 C 585.41 649.98 586.17 654.93 587.51 659.72 C 588.26 657.95 589.01 656.19 589.75 654.42 C 596.59 655.54 603.66 656.14 610.04 659.07 C 618.27 662.90 626.19 668.14 631.62 675.53 C 633.01 677.09 632.18 679.23 632.22 681.09 C 638.29 685.08 645.00 687.98 651.10 691.94 C 644.70 690.31 639.22 686.52 633.30 683.77 C 618.89 676.41 604.22 669.59 589.67 662.52 C 587.78 661.39 585.03 660.49 584.76 657.97 C 584.13 652.67 584.66 647.32 584.58 642.00 Z" />
</g>
</svg>
